<mxfile host="65bd71144e">
    <diagram id="QktT9s6Nc1AT6UdeHGov" name="CcsdsTmVcSend">
        <mxGraphModel dx="785" dy="525" grid="1" gridSize="10" guides="1" tooltips="1" connect="1" arrows="1" fold="1" page="1" pageScale="1" pageWidth="850" pageHeight="1100" math="0" shadow="0">
            <root>
                <mxCell id="0"/>
                <mxCell id="1" parent="0"/>
                <mxCell id="dWn8UKgOHoSUPNCsCLdR-42" value="" style="rounded=0;whiteSpace=wrap;html=1;fillColor=default;" parent="1" vertex="1">
                    <mxGeometry x="60" y="390" width="680" height="570" as="geometry"/>
                </mxCell>
                <mxCell id="2" value="&lt;font style=&quot;font-size: 16px;&quot;&gt;&lt;b&gt;Packet&lt;br&gt;Processing&lt;/b&gt;&lt;/font&gt;" style="rounded=0;whiteSpace=wrap;html=1;fillColor=#fff2cc;strokeColor=#000000;" parent="1" vertex="1">
                    <mxGeometry x="80" y="470" width="320" height="110" as="geometry"/>
                </mxCell>
                <mxCell id="3" value="" style="shape=flexArrow;endArrow=classic;html=1;entryX=0.5;entryY=0;entryDx=0;entryDy=0;" parent="1" edge="1">
                    <mxGeometry width="50" height="50" relative="1" as="geometry">
                        <mxPoint x="239.64000000000004" y="400" as="sourcePoint"/>
                        <mxPoint x="239.64000000000004" y="470" as="targetPoint"/>
                    </mxGeometry>
                </mxCell>
                <mxCell id="4" value="&lt;font style=&quot;font-size: 16px;&quot;&gt;&lt;b&gt;Virtual Channel&lt;br&gt;Generation&lt;/b&gt;&lt;/font&gt;" style="rounded=0;whiteSpace=wrap;html=1;fillColor=#fff2cc;strokeColor=#000000;" parent="1" vertex="1">
                    <mxGeometry x="200" y="660" width="400" height="110" as="geometry"/>
                </mxCell>
                <mxCell id="7" value="" style="shape=flexArrow;endArrow=classic;html=1;" parent="1" edge="1">
                    <mxGeometry width="50" height="50" relative="1" as="geometry">
                        <mxPoint x="300" y="580" as="sourcePoint"/>
                        <mxPoint x="300" y="660" as="targetPoint"/>
                    </mxGeometry>
                </mxCell>
                <mxCell id="8" value="" style="shape=flexArrow;endArrow=classic;html=1;entryX=0.5;entryY=0;entryDx=0;entryDy=0;exitX=0.5;exitY=1;exitDx=0;exitDy=0;" parent="1" source="4" target="9" edge="1">
                    <mxGeometry width="50" height="50" relative="1" as="geometry">
                        <mxPoint x="380" y="770" as="sourcePoint"/>
                        <mxPoint x="360" y="850" as="targetPoint"/>
                    </mxGeometry>
                </mxCell>
                <mxCell id="9" value="frames&lt;br&gt;FIFO" style="rounded=0;whiteSpace=wrap;html=1;fillColor=#d5e8d4;strokeColor=#000000;" parent="1" vertex="1">
                    <mxGeometry x="360" y="840" width="80" height="40" as="geometry"/>
                </mxCell>
                <mxCell id="10" value="VCP service&lt;br&gt;request" style="rounded=0;whiteSpace=wrap;html=1;fillColor=#dae8fc;strokeColor=#000000;" parent="1" vertex="1">
                    <mxGeometry x="160" y="340" width="160" height="60" as="geometry"/>
                </mxCell>
                <mxCell id="13" value="VC_FSH service&lt;br&gt;request" style="rounded=0;whiteSpace=wrap;html=1;fillColor=#dae8fc;strokeColor=#000000;" parent="1" vertex="1">
                    <mxGeometry x="480" y="340" width="160" height="60" as="geometry"/>
                </mxCell>
                <mxCell id="14" value="" style="shape=flexArrow;endArrow=classic;html=1;exitX=0.5;exitY=1;exitDx=0;exitDy=0;entryX=0.5;entryY=0;entryDx=0;entryDy=0;" parent="1" source="13" edge="1">
                    <mxGeometry width="50" height="50" relative="1" as="geometry">
                        <mxPoint x="290" y="469.9999999999998" as="sourcePoint"/>
                        <mxPoint x="560" y="505" as="targetPoint"/>
                    </mxGeometry>
                </mxCell>
                <mxCell id="19" value="release&lt;br&gt;signal" style="edgeStyle=orthogonalEdgeStyle;html=1;exitX=0.107;exitY=0.031;exitDx=0;exitDy=0;exitPerimeter=0;entryX=0.5;entryY=1;entryDx=0;entryDy=0;" parent="1" source="15" target="dWn8UKgOHoSUPNCsCLdR-32" edge="1">
                    <mxGeometry x="-0.2554" relative="1" as="geometry">
                        <mxPoint x="300" y="770" as="targetPoint"/>
                        <Array as="points">
                            <mxPoint x="337" y="840"/>
                            <mxPoint x="175" y="840"/>
                        </Array>
                        <mxPoint as="offset"/>
                    </mxGeometry>
                </mxCell>
                <mxCell id="15" value="get_VC_frame" style="rounded=0;whiteSpace=wrap;html=1;fillColor=#dae8fc;strokeColor=#000000;" parent="1" vertex="1">
                    <mxGeometry x="320" y="950" width="160" height="50" as="geometry"/>
                </mxCell>
                <mxCell id="16" value="" style="shape=flexArrow;endArrow=classic;html=1;exitX=0.5;exitY=1;exitDx=0;exitDy=0;entryX=0.75;entryY=0;entryDx=0;entryDy=0;" parent="1" source="9" edge="1">
                    <mxGeometry width="50" height="50" relative="1" as="geometry">
                        <mxPoint x="370" y="780" as="sourcePoint"/>
                        <mxPoint x="400" y="950" as="targetPoint"/>
                    </mxGeometry>
                </mxCell>
                <mxCell id="17" value="&lt;font style=&quot;font-size: 16px;&quot;&gt;&lt;b&gt;class&lt;br&gt;CcsdsTmVcSend&lt;/b&gt;&lt;/font&gt;" style="rounded=0;whiteSpace=wrap;html=1;fillColor=default;" parent="1" vertex="1">
                    <mxGeometry x="60" y="900" width="180" height="60" as="geometry"/>
                </mxCell>
                <mxCell id="20" value="data_field_buffer" style="rounded=0;whiteSpace=wrap;html=1;fillColor=#d5e8d4;strokeColor=#000000;" parent="1" vertex="1">
                    <mxGeometry x="291" y="500" width="109" height="20" as="geometry"/>
                </mxCell>
                <mxCell id="21" value="packets [data, size]" style="rounded=0;whiteSpace=wrap;html=1;" parent="1" vertex="1">
                    <mxGeometry x="245" y="420" width="120" height="20" as="geometry"/>
                </mxCell>
                <mxCell id="22" value="data fields [data, size],&lt;br&gt;first_header_ptr" style="rounded=0;whiteSpace=wrap;html=1;" parent="1" vertex="1">
                    <mxGeometry x="305" y="590" width="125" height="40" as="geometry"/>
                </mxCell>
                <mxCell id="23" value="VC frames [frame]" style="rounded=0;whiteSpace=wrap;html=1;" parent="1" vertex="1">
                    <mxGeometry x="405" y="790" width="120" height="20" as="geometry"/>
                </mxCell>
                <mxCell id="24" value="VC frames [frame]" style="rounded=0;whiteSpace=wrap;html=1;" parent="1" vertex="1">
                    <mxGeometry x="405" y="900" width="120" height="20" as="geometry"/>
                </mxCell>
                <mxCell id="25" value="&lt;font style=&quot;font-size: 16px;&quot;&gt;&lt;b&gt;SDLS&lt;/b&gt;&lt;/font&gt;" style="rounded=0;whiteSpace=wrap;html=1;fillColor=#fff2cc;strokeColor=#000000;" parent="1" vertex="1">
                    <mxGeometry x="350" y="740" width="100" height="20" as="geometry"/>
                </mxCell>
                <mxCell id="26" value="Методы - интерфейсы для взаимодействия с классом&amp;nbsp;" style="rounded=0;whiteSpace=wrap;html=1;fillColor=#dae8fc;strokeColor=#000000;" parent="1" vertex="1">
                    <mxGeometry x="790" y="880" width="330" height="40" as="geometry"/>
                </mxCell>
                <mxCell id="27" value="Абстрактные процедуры из стандарта CCSDS SDLP TM" style="rounded=0;whiteSpace=wrap;html=1;fillColor=#fff2cc;strokeColor=#000000;" parent="1" vertex="1">
                    <mxGeometry x="790" y="920" width="330" height="40" as="geometry"/>
                </mxCell>
                <mxCell id="dWn8UKgOHoSUPNCsCLdR-30" value="packet_processing_add_packet()" style="rounded=0;whiteSpace=wrap;html=1;fillColor=#e1d5e7;strokeColor=#000000;" parent="1" vertex="1">
                    <mxGeometry x="120" y="470" width="240" height="20" as="geometry"/>
                </mxCell>
                <mxCell id="dWn8UKgOHoSUPNCsCLdR-32" value="packet_processing_release()" style="rounded=0;whiteSpace=wrap;html=1;fillColor=#e1d5e7;strokeColor=#000000;" parent="1" vertex="1">
                    <mxGeometry x="90" y="560" width="170" height="20" as="geometry"/>
                </mxCell>
                <mxCell id="dWn8UKgOHoSUPNCsCLdR-35" value="first_header_ptr" style="rounded=0;whiteSpace=wrap;html=1;fillColor=#d5e8d4;strokeColor=#000000;" parent="1" vertex="1">
                    <mxGeometry x="290" y="530" width="110" height="20" as="geometry"/>
                </mxCell>
                <mxCell id="dWn8UKgOHoSUPNCsCLdR-37" value="secondary header [data, size]" style="rounded=0;whiteSpace=wrap;html=1;" parent="1" vertex="1">
                    <mxGeometry x="565" y="420" width="165" height="20" as="geometry"/>
                </mxCell>
                <mxCell id="dWn8UKgOHoSUPNCsCLdR-38" value="virtual_channel_generation()" style="rounded=0;whiteSpace=wrap;html=1;fillColor=#e1d5e7;strokeColor=#000000;" parent="1" vertex="1">
                    <mxGeometry x="210" y="660" width="180" height="20" as="geometry"/>
                </mxCell>
                <mxCell id="dWn8UKgOHoSUPNCsCLdR-40" value="VC_FSH buffer" style="rounded=0;whiteSpace=wrap;html=1;fillColor=#d5e8d4;strokeColor=#000000;" parent="1" vertex="1">
                    <mxGeometry x="520" y="505" width="80" height="40" as="geometry"/>
                </mxCell>
                <mxCell id="dWn8UKgOHoSUPNCsCLdR-41" value="" style="shape=flexArrow;endArrow=classic;html=1;exitX=0.5;exitY=1;exitDx=0;exitDy=0;" parent="1" edge="1">
                    <mxGeometry width="50" height="50" relative="1" as="geometry">
                        <mxPoint x="559.47" y="545" as="sourcePoint"/>
                        <mxPoint x="560" y="660" as="targetPoint"/>
                    </mxGeometry>
                </mxCell>
                <mxCell id="dWn8UKgOHoSUPNCsCLdR-43" value="Приватные методы, реализующие логику&lt;br&gt;CCSDS SDLP TM" style="rounded=0;whiteSpace=wrap;html=1;fillColor=#e1d5e7;strokeColor=#000000;" parent="1" vertex="1">
                    <mxGeometry x="790" y="840" width="330" height="40" as="geometry"/>
                </mxCell>
                <mxCell id="dWn8UKgOHoSUPNCsCLdR-44" value="Буфферы" style="rounded=0;whiteSpace=wrap;html=1;fillColor=#d5e8d4;strokeColor=#000000;" parent="1" vertex="1">
                    <mxGeometry x="790" y="960" width="170" height="40" as="geometry"/>
                </mxCell>
                <mxCell id="dWn8UKgOHoSUPNCsCLdR-46" value="secondary header [data, size]" style="rounded=0;whiteSpace=wrap;html=1;" parent="1" vertex="1">
                    <mxGeometry x="565" y="590" width="165" height="20" as="geometry"/>
                </mxCell>
                <mxCell id="dWn8UKgOHoSUPNCsCLdR-47" value="&lt;div style=&quot;text-align: center;&quot;&gt;&lt;span style=&quot;background-color: initial;&quot;&gt;&lt;font style=&quot;font-size: 16px;&quot;&gt;&lt;b&gt;&lt;br&gt;&lt;/b&gt;&lt;/font&gt;&lt;/span&gt;&lt;/div&gt;&lt;div style=&quot;text-align: center;&quot;&gt;&lt;span style=&quot;background-color: initial;&quot;&gt;&lt;font style=&quot;font-size: 16px;&quot;&gt;&lt;b&gt;CcsdsTmVcSend&amp;nbsp;&lt;/b&gt;&lt;/font&gt;&lt;/span&gt;&lt;/div&gt;&lt;div style=&quot;text-align: center;&quot;&gt;&lt;span style=&quot;background-color: initial;&quot;&gt;&lt;font style=&quot;font-size: 16px;&quot;&gt;&lt;b&gt;&lt;br&gt;&lt;/b&gt;&lt;/font&gt;&lt;/span&gt;&lt;/div&gt;&lt;font style=&quot;font-size: 12px;&quot;&gt;Класс&amp;nbsp;CcsdsTmVcSend реализует процедуры SDLP TM, относящиеся к одному виртуальному каналу и к отправляющей стороне.&lt;br&gt;&lt;br&gt;Основная логика:&lt;br&gt;1.&amp;nbsp;VCP сервис работает асинхронно, каждый пакет при необходимости делится или объединяется в&amp;nbsp;&lt;span style=&quot;border-color: var(--border-color); text-align: center;&quot;&gt;Packet&lt;br style=&quot;border-color: var(--border-color);&quot;&gt;Processing и через&amp;nbsp;&lt;/span&gt;&lt;span style=&quot;border-color: var(--border-color); text-align: center;&quot;&gt;Virtual Channel Generation попадает в очередь, откуда забирается вызовом&amp;nbsp;&lt;/span&gt;&lt;span style=&quot;text-align: center;&quot;&gt;get_VC_frame.&lt;br&gt;&lt;/span&gt;Если при вызове&amp;nbsp;&lt;span style=&quot;text-align: center;&quot;&gt;get_VC_frame очередь пустая, но в&amp;nbsp;&lt;/span&gt;&lt;span style=&quot;text-align: center;&quot;&gt;Packet&amp;nbsp;&lt;/span&gt;&lt;span style=&quot;text-align: center;&quot;&gt;Processing есть не до конца собранный кадр, то через release signal происходит запрос на добавление пустого пакета в свободную часть кадра. Собранный кадр отправляется в очередь, откуда может быть взят последующим вызовом&amp;nbsp;&lt;/span&gt;&lt;/font&gt;&lt;span style=&quot;text-align: center;&quot;&gt;get_VC_frame.&lt;br&gt;&lt;/span&gt;2.&amp;nbsp;&lt;span style=&quot;text-align: center;&quot;&gt;VC_FSH работает синхронно.&amp;nbsp;&lt;/span&gt;&lt;span style=&quot;text-align: center;&quot;&gt;Если включен VC_FSH, то в каждый кадр добавляется содержимое VC_FSH_buffer. Содержимое буффера обновляется через&amp;nbsp;&lt;/span&gt;&lt;span style=&quot;text-align: center;&quot;&gt;VC_FSH service request.&lt;br&gt;&lt;/span&gt;3.&amp;nbsp;&lt;span style=&quot;text-align: center;&quot;&gt;Если включено шифрование SDLS, то оно происходит перед добавлением кадра в очередь. Параметры шифрования определяются классом sdls,&amp;nbsp;&lt;/span&gt;&lt;span style=&quot;border-color: var(--border-color); text-align: center;&quot;&gt;Virtual Channel&lt;br style=&quot;border-color: var(--border-color);&quot;&gt;Generation обеспечивает только механизм включения и&amp;nbsp; выключения шифрования.&lt;br&gt;&lt;/span&gt;&lt;span style=&quot;text-align: center;&quot;&gt;&lt;br&gt;Параметры:&lt;br&gt;SCID - 0 .. 1023&amp;nbsp; &amp;nbsp; &amp;nbsp; &amp;nbsp; &amp;nbsp; &amp;nbsp; &amp;nbsp; &amp;nbsp; &amp;nbsp; &amp;nbsp; &amp;nbsp; - const&lt;br&gt;VCID - 0 .. 7&amp;nbsp; &amp;nbsp; &amp;nbsp; &amp;nbsp; &amp;nbsp; &amp;nbsp; &amp;nbsp; &amp;nbsp; &amp;nbsp; &amp;nbsp; &amp;nbsp; &amp;nbsp; &amp;nbsp; &amp;nbsp;&amp;nbsp;&lt;/span&gt;&lt;span style=&quot;text-align: center;&quot;&gt;- const&lt;/span&gt;&lt;span style=&quot;text-align: center;&quot;&gt;&lt;br&gt;SDLS_enable - true, false&amp;nbsp; &amp;nbsp; &amp;nbsp; &amp;nbsp;- run time&lt;br&gt;VC_FSH_enable - true, false&amp;nbsp;&amp;nbsp;&lt;/span&gt;&lt;span style=&quot;text-align: center;&quot;&gt;- run time&lt;/span&gt;&lt;span style=&quot;text-align: center;&quot;&gt;&lt;br&gt;&lt;/span&gt;&lt;span style=&quot;font-size: 14px;&quot;&gt;&lt;br&gt;&lt;/span&gt;" style="rounded=0;whiteSpace=wrap;html=1;align=left;" parent="1" vertex="1">
                    <mxGeometry x="790" y="340" width="330" height="500" as="geometry"/>
                </mxCell>
                <mxCell id="dWn8UKgOHoSUPNCsCLdR-48" value="Параметры" style="rounded=0;whiteSpace=wrap;html=1;fillColor=#f8cecc;strokeColor=#000000;" parent="1" vertex="1">
                    <mxGeometry x="950" y="960" width="170" height="40" as="geometry"/>
                </mxCell>
                <mxCell id="dWn8UKgOHoSUPNCsCLdR-58" style="edgeStyle=orthogonalEdgeStyle;html=1;fontSize=16;entryX=1;entryY=0.913;entryDx=0;entryDy=0;entryPerimeter=0;" parent="1" source="dWn8UKgOHoSUPNCsCLdR-49" target="4" edge="1">
                    <mxGeometry relative="1" as="geometry"/>
                </mxCell>
                <mxCell id="dWn8UKgOHoSUPNCsCLdR-49" value="VC_FSH_enable" style="rounded=0;whiteSpace=wrap;html=1;fillColor=#f8cecc;strokeColor=#000000;" parent="1" vertex="1">
                    <mxGeometry x="630" y="750" width="100" height="20" as="geometry"/>
                </mxCell>
                <mxCell id="dWn8UKgOHoSUPNCsCLdR-57" style="edgeStyle=orthogonalEdgeStyle;html=1;fontSize=16;" parent="1" source="dWn8UKgOHoSUPNCsCLdR-50" edge="1">
                    <mxGeometry relative="1" as="geometry">
                        <mxPoint x="600" y="730" as="targetPoint"/>
                    </mxGeometry>
                </mxCell>
                <mxCell id="dWn8UKgOHoSUPNCsCLdR-50" value="SDLS_enable" style="rounded=0;whiteSpace=wrap;html=1;fillColor=#f8cecc;strokeColor=#000000;" parent="1" vertex="1">
                    <mxGeometry x="630" y="720" width="100" height="20" as="geometry"/>
                </mxCell>
                <mxCell id="dWn8UKgOHoSUPNCsCLdR-55" style="edgeStyle=orthogonalEdgeStyle;html=1;fontSize=16;entryX=1;entryY=0.364;entryDx=0;entryDy=0;entryPerimeter=0;" parent="1" source="dWn8UKgOHoSUPNCsCLdR-51" target="4" edge="1">
                    <mxGeometry relative="1" as="geometry"/>
                </mxCell>
                <mxCell id="dWn8UKgOHoSUPNCsCLdR-51" value="VCID" style="rounded=0;whiteSpace=wrap;html=1;fillColor=#f8cecc;strokeColor=#000000;" parent="1" vertex="1">
                    <mxGeometry x="630" y="690" width="100" height="20" as="geometry"/>
                </mxCell>
                <mxCell id="dWn8UKgOHoSUPNCsCLdR-54" style="edgeStyle=orthogonalEdgeStyle;html=1;fontSize=16;" parent="1" source="dWn8UKgOHoSUPNCsCLdR-52" target="4" edge="1">
                    <mxGeometry relative="1" as="geometry">
                        <Array as="points">
                            <mxPoint x="600" y="670"/>
                            <mxPoint x="600" y="670"/>
                        </Array>
                    </mxGeometry>
                </mxCell>
                <mxCell id="dWn8UKgOHoSUPNCsCLdR-52" value="SCID" style="rounded=0;whiteSpace=wrap;html=1;fillColor=#f8cecc;strokeColor=#000000;" parent="1" vertex="1">
                    <mxGeometry x="630" y="660" width="100" height="20" as="geometry"/>
                </mxCell>
            </root>
        </mxGraphModel>
    </diagram>
    <diagram id="vNPgJLFHJEqL_uVgeNZd" name="CcsdsTmMcSend">
        <mxGraphModel dx="785" dy="525" grid="1" gridSize="10" guides="1" tooltips="1" connect="1" arrows="1" fold="1" page="1" pageScale="1" pageWidth="850" pageHeight="1100" math="0" shadow="0">
            <root>
                <mxCell id="0"/>
                <mxCell id="1" parent="0"/>
                <mxCell id="pTWJjfA4cfGH421eviAf-1" value="" style="rounded=0;whiteSpace=wrap;html=1;fillColor=default;" vertex="1" parent="1">
                    <mxGeometry x="80" y="250" width="740" height="390" as="geometry"/>
                </mxCell>
                <mxCell id="pTWJjfA4cfGH421eviAf-2" value="" style="shape=flexArrow;endArrow=classic;html=1;entryX=0.5;entryY=0;entryDx=0;entryDy=0;" edge="1" parent="1">
                    <mxGeometry width="50" height="50" relative="1" as="geometry">
                        <mxPoint x="180" y="260.0000000000002" as="sourcePoint"/>
                        <mxPoint x="180" y="329.9999999999998" as="targetPoint"/>
                    </mxGeometry>
                </mxCell>
                <mxCell id="pTWJjfA4cfGH421eviAf-3" value="Virtual&lt;br/&gt;Channel&lt;br/&gt;Multiplexing" style="rounded=0;whiteSpace=wrap;html=1;fillColor=#fff2cc;strokeColor=#000000;" vertex="1" parent="1">
                    <mxGeometry x="100" y="330" width="510" height="80" as="geometry"/>
                </mxCell>
                <mxCell id="pTWJjfA4cfGH421eviAf-4" value="" style="shape=flexArrow;endArrow=classic;html=1;entryX=0.5;entryY=0;entryDx=0;entryDy=0;" edge="1" parent="1">
                    <mxGeometry width="50" height="50" relative="1" as="geometry">
                        <mxPoint x="360" y="409.9999999999998" as="sourcePoint"/>
                        <mxPoint x="360" y="479.9999999999998" as="targetPoint"/>
                    </mxGeometry>
                </mxCell>
                <mxCell id="pTWJjfA4cfGH421eviAf-5" value="get_VC_frame" style="rounded=0;whiteSpace=wrap;html=1;fillColor=#dae8fc;strokeColor=#000000;" vertex="1" parent="1">
                    <mxGeometry x="100" y="200" width="160" height="60" as="geometry"/>
                </mxCell>
                <mxCell id="pTWJjfA4cfGH421eviAf-6" value="&lt;font style=&quot;font-size: 14px;&quot;&gt;class&lt;br&gt;CcsdsTmMcSend&lt;/font&gt;" style="rounded=0;whiteSpace=wrap;html=1;fillColor=default;" vertex="1" parent="1">
                    <mxGeometry x="80" y="580" width="120" height="60" as="geometry"/>
                </mxCell>
                <mxCell id="pTWJjfA4cfGH421eviAf-7" value="multiplexing&lt;br&gt;logic" style="rounded=0;whiteSpace=wrap;html=1;" vertex="1" parent="1">
                    <mxGeometry x="110" y="350" width="80" height="40" as="geometry"/>
                </mxCell>
                <mxCell id="pTWJjfA4cfGH421eviAf-8" value="MC frames [frame]" style="rounded=0;whiteSpace=wrap;html=1;strokeColor=#000000;fillColor=default;" vertex="1" parent="1">
                    <mxGeometry x="370" y="420" width="120" height="30" as="geometry"/>
                </mxCell>
                <mxCell id="pTWJjfA4cfGH421eviAf-9" value="Interface" style="rounded=0;whiteSpace=wrap;html=1;fillColor=#dae8fc;strokeColor=#000000;" vertex="1" parent="1">
                    <mxGeometry x="690" y="660" width="120" height="40" as="geometry"/>
                </mxCell>
                <mxCell id="pTWJjfA4cfGH421eviAf-10" value="SDLP functions" style="rounded=0;whiteSpace=wrap;html=1;fillColor=#fff2cc;strokeColor=#000000;" vertex="1" parent="1">
                    <mxGeometry x="690" y="720" width="120" height="40" as="geometry"/>
                </mxCell>
                <mxCell id="pTWJjfA4cfGH421eviAf-11" value="VC frames [frame]" style="rounded=0;whiteSpace=wrap;html=1;strokeColor=#000000;fillColor=default;" vertex="1" parent="1">
                    <mxGeometry x="185" y="280" width="120" height="20" as="geometry"/>
                </mxCell>
                <mxCell id="pTWJjfA4cfGH421eviAf-12" value="" style="shape=flexArrow;endArrow=classic;html=1;entryX=0.5;entryY=0;entryDx=0;entryDy=0;" edge="1" parent="1">
                    <mxGeometry width="50" height="50" relative="1" as="geometry">
                        <mxPoint x="480" y="260.0000000000002" as="sourcePoint"/>
                        <mxPoint x="480" y="329.9999999999998" as="targetPoint"/>
                    </mxGeometry>
                </mxCell>
                <mxCell id="pTWJjfA4cfGH421eviAf-13" value="get_VC_frame" style="rounded=0;whiteSpace=wrap;html=1;fillColor=#dae8fc;strokeColor=#000000;" vertex="1" parent="1">
                    <mxGeometry x="400" y="200" width="160" height="60" as="geometry"/>
                </mxCell>
                <mxCell id="pTWJjfA4cfGH421eviAf-14" value="VC frames [frame]" style="rounded=0;whiteSpace=wrap;html=1;strokeColor=#000000;fillColor=default;" vertex="1" parent="1">
                    <mxGeometry x="485" y="280" width="120" height="20" as="geometry"/>
                </mxCell>
                <mxCell id="pTWJjfA4cfGH421eviAf-15" value="MC_FSH service" style="rounded=0;whiteSpace=wrap;html=1;fillColor=#dae8fc;strokeColor=#000000;" vertex="1" parent="1">
                    <mxGeometry x="640" y="200" width="160" height="60" as="geometry"/>
                </mxCell>
                <mxCell id="pTWJjfA4cfGH421eviAf-16" value="" style="shape=flexArrow;endArrow=classic;html=1;exitX=0.5;exitY=1;exitDx=0;exitDy=0;fontStyle=4" edge="1" parent="1" source="pTWJjfA4cfGH421eviAf-15">
                    <mxGeometry width="50" height="50" relative="1" as="geometry">
                        <mxPoint x="490" y="269.9999999999998" as="sourcePoint"/>
                        <mxPoint x="720" y="479.9999999999998" as="targetPoint"/>
                        <Array as="points">
                            <mxPoint x="720" y="420"/>
                        </Array>
                    </mxGeometry>
                </mxCell>
                <mxCell id="pTWJjfA4cfGH421eviAf-17" value="Master&lt;br/&gt;Channel&lt;br/&gt;Generation" style="rounded=0;whiteSpace=wrap;html=1;fillColor=#fff2cc;strokeColor=#000000;" vertex="1" parent="1">
                    <mxGeometry x="100" y="480" width="700" height="80" as="geometry"/>
                </mxCell>
                <mxCell id="pTWJjfA4cfGH421eviAf-18" value="get_VC_frame" style="rounded=0;whiteSpace=wrap;html=1;fillColor=#dae8fc;strokeColor=#000000;" vertex="1" parent="1">
                    <mxGeometry x="370" y="630" width="160" height="50" as="geometry"/>
                </mxCell>
                <mxCell id="pTWJjfA4cfGH421eviAf-19" value="" style="shape=flexArrow;endArrow=classic;html=1;entryX=0.5;entryY=0;entryDx=0;entryDy=0;" edge="1" parent="1">
                    <mxGeometry width="50" height="50" relative="1" as="geometry">
                        <mxPoint x="450" y="559.9999999999998" as="sourcePoint"/>
                        <mxPoint x="450" y="629.9999999999998" as="targetPoint"/>
                    </mxGeometry>
                </mxCell>
                <mxCell id="pTWJjfA4cfGH421eviAf-20" value="MC frames [frame]" style="rounded=0;whiteSpace=wrap;html=1;strokeColor=#000000;fillColor=default;" vertex="1" parent="1">
                    <mxGeometry x="460" y="570" width="120" height="30" as="geometry"/>
                </mxCell>
            </root>
        </mxGraphModel>
    </diagram>
    <diagram id="OC_ezcrFi7vJXvILyqpE" name="Common">
        <mxGraphModel dx="1334" dy="892" grid="1" gridSize="10" guides="1" tooltips="1" connect="1" arrows="1" fold="1" page="1" pageScale="1" pageWidth="850" pageHeight="1100" math="0" shadow="0">
            <root>
                <mxCell id="0"/>
                <mxCell id="1" parent="0"/>
            </root>
        </mxGraphModel>
    </diagram>
</mxfile>